<svg width="103" height="103" viewBox="0 0 103 103" fill="none" xmlns="http://www.w3.org/2000/svg">
<path d="M0.417435 64.3752C3.8713 64.2158 6.79381 62.8874 9.18495 60.39C11.5761 57.8926 12.7982 54.9169 12.7982 51.4631C12.7982 54.9169 13.9672 57.8926 16.3584 60.39C18.7495 62.8874 21.672 64.2158 25.1259 64.3752C21.672 64.5346 18.7495 65.8631 16.3584 68.3605C13.9672 70.8579 12.7982 73.8335 12.7982 77.2874C12.7982 73.8335 11.6292 70.8579 9.18495 68.3605C6.79381 65.8631 3.8713 64.5346 0.417435 64.3752ZM12.7982 26.117C19.4934 25.7982 25.179 23.1945 29.855 18.3059C34.531 13.4174 36.869 7.62548 36.869 0.877151C36.869 7.62548 39.2071 13.4174 43.8831 18.3059C48.5591 23.1945 54.2447 25.745 60.993 26.117C56.5827 26.3295 52.5443 27.5517 48.8248 29.8897C45.1583 32.1745 42.2358 35.2564 40.0572 39.0823C37.9318 42.9081 36.869 46.9996 36.869 51.4631C36.869 44.7147 34.531 38.8697 29.855 33.9812C25.179 29.0395 19.4934 26.4358 12.7982 26.117ZM30.4395 83.3449C35.4875 83.1324 39.7916 81.1663 43.2986 77.4999C46.8056 73.8335 48.5591 69.4763 48.5591 64.3752C48.5591 69.4763 50.3126 73.8335 53.8196 77.4999C57.3266 81.1663 61.5775 83.1324 66.6255 83.3449C61.5775 83.5575 57.3266 85.5235 53.8196 89.19C50.3126 92.8564 48.5591 97.2136 48.5591 102.315C48.5591 97.2136 46.8056 92.8564 43.2986 89.19C39.7384 85.5235 35.4875 83.6106 30.4395 83.3449ZM66.6255 58.1583C71.6734 57.9457 75.9243 55.9797 79.4314 52.3132C82.9384 48.6468 84.6387 44.2896 84.6387 39.1354C84.6387 44.2365 86.3922 48.5937 89.8992 52.2601C93.4062 55.9265 97.7103 57.8926 102.758 58.1051C97.7103 58.3177 93.4062 60.2837 89.8992 63.9501C86.3922 67.6166 84.6387 71.9737 84.6387 77.0748C84.6387 71.9737 82.8852 67.6166 79.4314 63.9501C75.9243 60.3369 71.6734 58.3708 66.6255 58.1583Z" fill="black"/>
</svg>
