<svg width="103" height="134" viewBox="0 0 103 134" fill="none" xmlns="http://www.w3.org/2000/svg">
<path d="M0.417435 82.2199C0.417435 91.2471 2.67423 99.6856 7.28594 107.437C11.8977 115.189 18.0793 121.469 25.929 126.08C33.7788 130.692 42.2172 133.047 51.3425 133.047C60.4678 133.047 69.0044 130.692 76.9523 126.08C84.9001 121.469 91.1799 115.189 95.7916 107.437C100.403 99.5875 102.758 91.2471 102.758 82.2199C102.758 76.3327 101.09 69.366 97.6559 61.2219C94.2217 53.0778 90.1006 45.5225 85.2926 38.654C80.9753 33.061 75.8729 26.8794 69.9856 20.2071C64.0983 13.5348 53.7956 3.23207 51.4407 0.877151L38.8811 13.5348C32.7976 19.4221 26.9103 26.1925 21.3173 33.9441C15.7244 41.6957 10.8183 50.0361 6.69721 58.9651C2.37986 67.8942 0.417435 75.6458 0.417435 82.2199Z" fill="black"/>
</svg>
