<svg width="103" height="143" viewBox="0 0 103 143" fill="none" xmlns="http://www.w3.org/2000/svg">
<path d="M0.417435 58.0903C0.417435 54.7475 2.08883 50.5047 5.30305 45.1048C8.51728 39.705 11.7315 35.205 14.6886 31.7337C15.46 30.8337 16.4885 29.548 17.6457 28.1337C18.8028 26.7195 19.5742 25.9481 19.7028 25.8195L24.4598 31.348C28.0597 35.3336 31.274 39.8335 34.2311 45.1048C37.1881 50.3762 38.731 54.6189 38.731 58.0903C38.731 63.3616 36.931 67.9901 33.2025 71.7186C29.6026 75.4471 25.1027 77.3756 19.7028 77.3756C14.4314 77.3756 9.80296 75.4471 6.07446 71.7186C2.34596 67.8615 0.417435 63.3616 0.417435 58.0903ZM40.5309 111.446C40.5309 107.718 41.5595 103.475 43.6166 98.4609C45.6737 93.5753 48.2451 88.9468 51.3307 84.8326C57.2449 76.9899 62.7734 70.4329 68.1732 65.1616C68.6875 64.7759 69.8446 63.7473 71.516 62.0759L74.7303 65.1616C79.7444 69.9186 85.4015 76.4757 91.7013 84.7041C95.0441 89.0754 97.6155 93.7039 99.6726 98.5895C101.73 103.475 102.758 107.718 102.758 111.446C102.758 120.318 99.8012 127.646 93.7585 133.689C87.7157 139.732 80.2587 142.689 71.516 142.689C62.7734 142.689 55.4449 139.603 49.4022 133.56C43.3594 127.518 40.5309 120.06 40.5309 111.446ZM60.0734 22.7339C60.0734 17.2054 64.3162 9.87697 72.9303 0.877151L76.1445 4.47708C78.5873 7.3056 80.773 10.3912 82.7015 13.9912C84.6301 17.4625 85.6586 20.4196 85.6586 22.7339C85.6586 26.3338 84.3729 29.1623 81.9301 31.6051C79.4873 33.9194 76.5302 35.205 72.9303 35.205C69.2018 35.205 66.1161 34.0479 63.6733 31.6051C61.3591 29.1623 60.0734 26.2052 60.0734 22.7339Z" fill="black"/>
</svg>
