<svg width="103" height="104" viewBox="0 0 103 104" fill="none" xmlns="http://www.w3.org/2000/svg">
<path d="M0.417435 52.0476C0.417435 50.8912 0.802899 49.8793 1.62201 49.0602C2.44112 48.2893 3.45297 47.9038 4.51299 47.9038H14.3423C15.4505 47.9038 16.366 48.2893 17.137 49.1084C17.8597 49.9275 18.2452 50.8912 18.2452 52.0476C18.2452 53.2039 17.9079 54.1676 17.1851 54.9867C16.4624 55.8058 15.4987 56.1913 14.3905 56.1913H4.56118C3.45297 56.1913 2.48931 55.8058 1.6702 54.9867C0.851083 54.1676 0.417435 53.2039 0.417435 52.0476ZM14.1978 85.4384C14.1978 84.3302 14.5833 83.3665 15.306 82.4992L22.3889 75.6091C23.1117 74.8381 24.0753 74.5009 25.2317 74.5009C26.3881 74.5009 27.3518 74.8863 28.1227 75.6091C28.8936 76.3318 29.2791 77.2473 29.2791 78.3555C29.2791 79.5119 28.8936 80.5719 28.1227 81.4392L21.2807 88.2812C19.3052 89.8231 17.3297 89.8231 15.3542 88.2812C14.5833 87.5103 14.1978 86.5466 14.1978 85.4384ZM14.1978 18.7531C14.1978 17.6449 14.5833 16.6812 15.306 15.8139C16.2697 14.9948 17.2815 14.6093 18.3897 14.6093C19.4497 14.6093 20.4134 14.9948 21.2325 15.7657L28.1227 22.8486C28.8936 23.5714 29.2791 24.535 29.2791 25.6914C29.2791 26.8478 28.8936 27.8115 28.1227 28.5824C27.3518 29.3533 26.3881 29.7388 25.2317 29.7388C24.0753 29.7388 23.1117 29.3533 22.3889 28.5824L15.3542 21.6922C14.5833 20.9213 14.1978 19.9095 14.1978 18.7531ZM26.4845 52.0476C26.4845 47.5665 27.5927 43.3746 29.8573 39.52C32.1219 35.6653 35.1574 32.5816 39.0602 30.317C42.9631 28.0524 47.1068 26.9442 51.5878 26.9442C54.9607 26.9442 58.1889 27.6187 61.3208 28.9679C64.4045 30.317 67.1028 32.0998 69.3192 34.3644C71.5838 36.629 73.3666 39.279 74.6675 42.3628C75.9685 45.4465 76.643 48.7229 76.643 52.0957C76.643 56.6249 75.5348 60.8169 73.2702 64.6715C71.0056 68.5262 67.9701 71.5617 64.1154 73.8263C60.2608 76.0909 56.0689 77.1991 51.5397 77.1991C47.0104 77.1991 42.8185 76.0909 38.9639 73.8263C35.1092 71.5617 32.0737 68.5262 29.8091 64.6715C27.6409 60.7687 26.4845 56.5768 26.4845 52.0476ZM47.4923 89.534C47.4923 88.3776 47.8777 87.4139 48.6969 86.643C49.516 85.8721 50.4796 85.4866 51.5878 85.4866C52.7442 85.4866 53.7561 85.8721 54.527 86.643C55.2979 87.4139 55.6834 88.3776 55.6834 89.534V99.1224C55.6834 100.279 55.2979 101.291 54.4788 102.11C53.6597 102.929 52.696 103.314 51.5878 103.314C50.4796 103.314 49.4678 102.929 48.6969 102.11C47.8777 101.291 47.4923 100.279 47.4923 99.1224V89.534ZM47.4923 14.8502V5.02089C47.4923 3.91268 47.8777 2.94902 48.6969 2.12991C49.516 1.3108 50.4796 0.877151 51.636 0.877151C52.7924 0.877151 53.7079 1.26262 54.527 2.08173C55.3461 2.90084 55.7316 3.8645 55.7316 4.97271V14.8502C55.7316 15.9584 55.3461 16.8739 54.527 17.6449C53.7079 18.4158 52.7442 18.7531 51.636 18.7531C50.5278 18.7531 49.516 18.3676 48.745 17.6449C47.9741 16.9221 47.4923 15.9584 47.4923 14.8502ZM48.0223 35.6653C52.2142 36.1953 55.7316 38.0263 58.5744 41.2064C61.4172 44.3864 62.8627 48.1447 62.8627 52.433C62.8627 56.4322 61.6099 59.9496 59.1044 63.0333C56.5989 66.0688 53.4188 68.0443 49.5641 68.8634C50.5278 68.9598 51.2506 69.0562 51.6842 69.0562C56.358 69.0562 60.4053 67.3698 63.73 64.0451C67.0546 60.7205 68.741 56.7213 68.741 51.9994C68.741 47.3738 67.0546 43.4228 63.73 40.0982C60.4053 36.8217 56.4061 35.1835 51.6842 35.1835C50.3833 35.2799 49.1787 35.4244 48.0223 35.6653ZM74.0893 78.3555C74.0893 77.2473 74.4748 76.3318 75.1975 75.6573C75.9203 74.8863 76.8358 74.549 77.8958 74.549C79.0522 74.549 80.0158 74.9345 80.7868 75.6573L87.8215 82.5474C88.5924 83.3665 88.9779 84.3784 88.9779 85.4866C88.9779 86.5948 88.5924 87.5585 87.8215 88.3294C85.8942 89.8231 83.9668 89.8231 82.0395 88.3294L75.1975 81.4874C74.4748 80.6201 74.0893 79.6083 74.0893 78.3555ZM74.0893 25.7396C74.0893 24.535 74.4748 23.5714 75.1975 22.8968L82.0395 15.8139C82.8586 15.043 83.8223 14.6575 84.8823 14.6575C86.0387 14.6575 87.0024 15.043 87.7733 15.8621C88.5924 16.6812 88.9779 17.6449 88.9779 18.7531C88.9779 19.9576 88.5924 20.9695 87.8215 21.7404L80.7868 28.6306C79.9195 29.4015 78.9558 29.787 77.8958 29.787C76.7876 29.787 75.9203 29.4015 75.1975 28.6306C74.4748 27.8597 74.0893 26.896 74.0893 25.7396ZM84.9787 52.0476C84.9787 50.8912 85.3642 49.9275 86.1351 49.0602C86.906 48.2893 87.8215 47.9038 88.8815 47.9038H98.6145C99.7227 47.9038 100.686 48.3375 101.505 49.1566C102.325 49.9757 102.758 50.9393 102.758 52.0476C102.758 53.1558 102.325 54.1194 101.505 54.9385C100.686 55.7577 99.7227 56.1431 98.6145 56.1431H88.8815C87.7733 56.1431 86.8096 55.7577 86.0869 54.9385C85.3642 54.1194 84.9787 53.2039 84.9787 52.0476Z" fill="black"/>
</svg>
