<svg width="103" height="81" viewBox="0 0 103 81" fill="none" xmlns="http://www.w3.org/2000/svg">
<path d="M0.417435 52.071C0.417435 50.8499 0.840136 49.8636 1.68554 49.1591C2.34308 48.4546 3.32938 48.0789 4.59749 48.0789H14.3666C15.4938 48.0789 16.4801 48.4546 17.1846 49.2061C17.9361 49.9575 18.3118 50.8969 18.3118 52.0241C18.3118 53.1513 17.9361 54.0906 17.1846 54.8891C16.4331 55.6875 15.4938 56.0632 14.3666 56.0632H4.59749C3.47028 56.0632 2.48398 55.6875 1.63857 54.8891C0.793169 54.1376 0.417435 53.1982 0.417435 52.071ZM4.73839 75.9302C4.73839 74.85 5.16109 73.9106 5.95953 73.0652C6.711 72.3138 7.6973 71.985 8.82451 71.985H94.3512C95.4784 71.985 96.4647 72.3607 97.2631 73.1122C98.0616 73.8637 98.4373 74.803 98.4373 75.9302C98.4373 77.0574 98.0146 77.9968 97.2162 78.7952C96.4177 79.5936 95.4314 80.0163 94.3512 80.0163H8.87147C7.74427 80.0163 6.80493 79.5936 6.00649 78.7952C5.20806 77.9968 4.73839 77.0574 4.73839 75.9302ZM14.3666 18.7715C14.3666 17.5504 14.7423 16.658 15.4468 16.0005C16.2453 15.1551 17.2316 14.7324 18.3588 14.7324C19.486 14.7324 20.4253 15.1551 21.2238 16.0005L27.987 22.8576C28.8324 23.6091 29.2081 24.5485 29.2081 25.6757C29.2081 26.8498 28.8324 27.7892 28.0809 28.5406C27.3295 29.2921 26.3901 29.6678 25.2629 29.6678C24.2296 29.6678 23.2903 29.2921 22.4449 28.5406L15.4468 21.6365C14.7423 20.979 14.3666 20.0396 14.3666 18.7715ZM26.578 52.071C26.578 56.1572 27.4234 59.8206 29.0672 63.0143C29.2081 63.437 29.5839 63.6719 30.1944 63.6719H38.0379C38.3667 63.6719 38.6015 63.5779 38.6954 63.3901C38.7894 63.2022 38.6485 62.9204 38.3667 62.6386C35.8774 59.5857 34.6093 56.0632 34.6093 52.071C34.6093 47.4213 36.3001 43.4291 39.6348 40.1415C42.9694 36.8538 46.9616 35.2099 51.6113 35.2099C56.261 35.2099 60.2532 36.8538 63.5879 40.1415C66.9225 43.4291 68.5194 47.4213 68.5194 52.071C68.5194 56.1102 67.2513 59.6327 64.7621 62.6386C64.5742 62.9204 64.4803 63.1083 64.4803 63.2022C64.4333 63.3431 64.4803 63.484 64.6212 63.531C64.7151 63.6249 64.9029 63.6719 65.0908 63.6719H73.0752C73.4979 63.6719 73.8267 63.437 74.0615 63.0143C75.8462 59.6797 76.6916 56.0632 76.6916 52.071C76.6916 47.5622 75.5644 43.3822 73.31 39.5309C71.0556 35.6796 68.0028 32.6268 64.1515 30.3723C60.3002 28.1179 56.1201 26.9907 51.6113 26.9907C47.1025 26.9907 42.9225 28.1179 39.0712 30.3723C35.2199 32.6268 32.167 35.6796 29.9126 39.5309C27.6582 43.3822 26.578 47.5622 26.578 52.071ZM47.5722 14.8263V5.01024C47.5722 3.88303 47.9479 2.94369 48.7463 2.09829C49.5448 1.25289 50.4841 0.877151 51.6113 0.877151C52.7385 0.877151 53.6779 1.29985 54.5233 2.09829C55.3217 2.89673 55.7444 3.88303 55.7444 5.01024V14.8263C55.7444 15.9535 55.3217 16.8929 54.5233 17.7383C53.6779 18.5837 52.7385 18.9594 51.6113 18.9594C50.4841 18.9594 49.5448 18.5367 48.7463 17.7383C47.9479 16.8929 47.5722 15.9535 47.5722 14.8263ZM73.9676 25.6757C73.9676 24.5485 74.3433 23.6091 75.0948 22.8576L81.858 16.0005C82.6564 15.1551 83.6427 14.7324 84.7699 14.7324C85.9441 14.7324 86.9304 15.1081 87.6819 15.9065C88.4803 16.705 88.8561 17.6443 88.8561 18.7715C88.8561 19.9927 88.4803 20.932 87.7758 21.6365L80.6838 28.5406C79.9324 29.2451 78.993 29.5739 77.9128 29.5739C76.7386 29.6209 75.7993 29.2451 75.0478 28.5406C74.3433 27.8361 73.9676 26.8498 73.9676 25.6757ZM84.9108 52.071C84.9108 50.8029 85.2866 49.8636 86.038 49.1591C86.6956 48.4546 87.6349 48.0789 88.8091 48.0789H98.6252C99.7524 48.0789 100.739 48.4546 101.537 49.2061C102.336 49.9575 102.758 50.8969 102.758 52.0241C102.758 53.1513 102.336 54.0906 101.537 54.8891C100.692 55.6875 99.7524 56.0632 98.6252 56.0632H88.8091C87.7289 56.0632 86.7895 55.6875 86.038 54.8891C85.2866 54.1376 84.9108 53.1982 84.9108 52.071Z" fill="black"/>
</svg>
