<svg width="103" height="124" viewBox="0 0 103 124" fill="none" xmlns="http://www.w3.org/2000/svg">
<path d="M0.417435 52.0126C0.417435 45.0968 1.74472 38.4603 4.46916 32.1033C7.19359 25.7463 10.8262 20.3673 15.4367 15.8266C20.0473 11.2859 25.4962 7.6533 31.7833 4.92887C38.0705 2.20444 44.7069 0.877151 51.6228 0.877151C58.5386 0.877151 65.1751 2.20444 71.5321 4.92887C77.8192 7.6533 83.2681 11.2859 87.8088 15.8266C92.3495 20.3673 95.9821 25.8162 98.7065 32.1033C101.431 38.3905 102.758 45.0269 102.758 52.0126C102.758 63.3295 99.4051 73.3889 92.6988 82.3307C85.9925 91.2025 77.3302 97.2801 66.7818 100.563V123.546H37.1623V100.843C26.4043 97.6993 17.5325 91.6217 10.6864 82.6101C3.84044 73.5985 0.417435 63.3994 0.417435 52.0126ZM11.6644 52.0126C11.6644 62.8405 15.5764 72.1315 23.4703 79.8857C31.2245 87.7097 40.5853 91.6217 51.5529 91.6217C58.7482 91.6217 65.4545 89.8752 71.5321 86.3125C77.6795 82.7498 82.4997 77.9297 86.1322 71.8521C89.6949 65.7745 91.5112 59.1381 91.5112 51.9428C91.5112 46.5638 90.4634 41.4642 88.3677 36.5043C86.272 31.5445 83.4078 27.353 79.8451 23.7903C76.2824 20.2276 72.0211 17.3635 67.0612 15.2677C62.1013 13.172 57.0018 12.1242 51.6228 12.1242C46.2438 12.1242 41.1442 13.172 36.1843 15.2677C31.2245 17.3635 27.033 20.2276 23.4703 23.7903C19.9076 27.353 17.0435 31.6143 14.9477 36.5043C12.7123 41.534 11.6644 46.6336 11.6644 52.0126ZM15.7162 54.5275V49.4978H30.8752V54.5275H15.7162ZM23.3306 29.798L26.9632 26.1655L37.5815 36.7838L33.9489 40.4862L23.3306 29.798ZM41.0045 64.2376C41.0045 61.3036 42.0523 58.7888 44.0782 56.6232C46.1041 54.4576 48.6189 53.3399 51.4831 53.2701L70.5541 21.9042L75.1646 24.3492L61.0535 58.0902C62.3109 59.8366 62.8698 61.8625 62.8698 64.2376C62.8698 67.3114 61.8219 69.8961 59.6564 71.9918C57.4908 74.0875 54.9061 75.1354 51.8323 75.1354C48.8285 75.1354 46.2438 74.0875 44.1481 71.9918C42.0523 69.8961 41.0045 67.3114 41.0045 64.2376ZM50.1558 31.6143V16.5252H54.9759V31.6842H50.1558V31.6143ZM70.6938 54.4576V49.2882H85.8528V54.4576H70.6938Z" fill="black"/>
</svg>
