<svg width="103" height="55" viewBox="0 0 103 55" fill="none" xmlns="http://www.w3.org/2000/svg">
<path d="M0 34.4863C0 35.5183 0.387004 36.4213 1.20401 37.1523C1.89202 37.9693 2.79502 38.3563 3.91303 38.3563H67.0805C68.3276 38.3563 69.3596 38.7863 70.2196 39.6463C71.0796 40.5063 71.5096 41.5813 71.5096 42.8283C71.5096 44.0754 71.0796 45.1074 70.2196 45.9244C69.3596 46.7414 68.3275 47.1714 67.0375 47.1714C65.7905 47.1714 64.7155 46.7414 63.8985 45.9244C63.2105 45.1504 62.3505 44.8064 61.3185 44.8064C60.2435 44.8064 59.3405 45.1934 58.5665 45.9244C57.7925 46.6554 57.4055 47.5584 57.4055 48.5474C57.4055 49.6224 57.7925 50.5254 58.6095 51.2564C61.0175 53.6214 63.8555 54.8254 67.0375 54.8254C70.3916 54.8254 73.2726 53.6644 75.6806 51.3424C78.0886 49.0204 79.2496 46.2254 79.2496 42.8713C79.2496 39.5173 78.0456 36.6793 75.6376 34.2713C73.2296 31.8633 70.3486 30.6592 67.0375 30.6592H3.91303C2.83802 30.6592 1.93502 31.0463 1.16101 31.7773C0.387003 32.5083 0 33.4113 0 34.4863ZM0 20.3822C0 21.3712 0.387004 22.2312 1.20401 23.0052C1.93502 23.7792 2.83802 24.1232 3.91303 24.1232H90.0857C93.4397 24.1232 96.3208 22.9622 98.7288 20.5972C101.137 18.2751 102.341 15.4371 102.341 12.1261C102.341 8.81507 101.137 5.93405 98.7288 3.56903C96.3208 1.20401 93.4397 0 90.0857 0C86.7747 0 83.9797 1.16101 81.7007 3.44003C80.9266 4.12803 80.5396 5.07404 80.5396 6.32105C80.5396 7.43906 80.9266 8.34207 81.6577 9.03007C82.3887 9.71808 83.2917 10.0621 84.3667 10.0621C85.3987 10.0621 86.3017 9.71808 87.0757 9.03007C87.8927 8.12707 88.8817 7.69706 90.0857 7.69706C91.3327 7.69706 92.3647 8.12707 93.2247 8.98707C94.0848 9.84708 94.5148 10.8791 94.5148 12.1261C94.5148 13.3731 94.0848 14.4051 93.2247 15.2221C92.3647 16.0391 91.3327 16.4691 90.0857 16.4691H3.91303C2.83802 16.4691 1.93502 16.8561 1.16101 17.5871C0.387003 18.4041 0 19.3072 0 20.3822Z" fill="black"/>
</svg>
